# xmcd
#
# Track frame offsets: 
#        150
#        5125
#        23040
#        42807
#        60237
#        80490
#        97510
#        115835
#        118857
#        136790
#        157020
#        173027
#        192725
#
# Disc length: 2630 seconds
#
# Revision: 6
# Processed by: cddbd v1.5.2PL0 Copyright (c) Steve Scherf et al.
# Submitted via: ExactAudioCopy v1.0b3
#
DISCID=9e0a440d
DTITLE=陳奕迅 - Special Thanks To
DYEAR=2002
DGENRE=Pop
TTITLE0=Special Thanks To 1
TTITLE1=你的背包
TTITLE2=謝謝儂
TTITLE3=男人的錯
TTITLE4=你會不會
TTITLE5=故事
TTITLE6=想哭
TTITLE7=Special Thanks To 2
TTITLE8=人造衛星
TTITLE9=沒有手機的日子
TTITLE10=跳蚤市場
TTITLE11=狂人日記
TTITLE12=Special Thanks To 3
EXTD=YEAR: 2002 ID3G: 13
EXTT0=
EXTT1=
EXTT2=
EXTT3=
EXTT4=
EXTT5=
EXTT6=
EXTT7=
EXTT8=
EXTT9=
EXTT10=
EXTT11=
EXTT12=
PLAYORDER=
